<?xml version="1.0" encoding="utf-8"?>
<!-- Generator: Adobe Illustrator 25.3.1, SVG Export Plug-In . SVG Version: 6.00 Build 0)  -->
<svg version="1.0" id="レイヤー_1" xmlns="http://www.w3.org/2000/svg" xmlns:xlink="http://www.w3.org/1999/xlink" x="0px"
	 y="0px" viewBox="0 0 595.28 841.89" enable-background="new 0 0 595.28 841.89" xml:space="preserve">
<g>
	<g>
		<g>
			<path fill="#233237" d="M271.18,479.91c2.69,1.55,4.04,3.89,4.04,7.02c0,2.6-0.92,4.74-2.76,6.4c-1.84,1.67-4.11,2.5-6.8,2.5
				h-13.03v-30.7h12.11c2.63,0,4.85,0.81,6.65,2.43c1.8,1.62,2.7,3.69,2.7,6.21C274.08,476.32,273.11,478.36,271.18,479.91z
				 M264.73,470.79h-6.05v6.75h6.05c0.94,0,1.72-0.32,2.35-0.97c0.63-0.64,0.94-1.45,0.94-2.41c0-0.97-0.31-1.77-0.92-2.41
				C266.49,471.11,265.7,470.79,264.73,470.79z M265.65,490.18c1.02,0,1.87-0.34,2.54-1.03c0.67-0.69,1.01-1.56,1.01-2.61
				c0-1.02-0.34-1.88-1.01-2.57c-0.67-0.69-1.52-1.03-2.54-1.03h-6.97v7.24H265.65z"/>
			<path fill="#233237" d="M299.13,495.83l-1.95-5.53h-12.61l-1.84,5.53h-6.54l10.75-30.7h7.5l10.83,30.7H299.13z M286.53,484.65
				h8.64l-4.43-12.54L286.53,484.65z"/>
			<path fill="#233237" d="M317.85,496.45c-3.04,0-5.6-0.68-7.68-2.04c-2.08-1.36-3.54-3.21-4.39-5.55l5.18-3.03
				c1.2,3.13,3.55,4.69,7.06,4.69c1.7,0,2.94-0.31,3.73-0.92s1.18-1.39,1.18-2.32c0-1.08-0.48-1.92-1.45-2.52
				c-0.96-0.6-2.69-1.25-5.18-1.95c-1.37-0.41-2.54-0.82-3.49-1.23c-0.95-0.41-1.9-0.96-2.85-1.64c-0.95-0.69-1.67-1.56-2.17-2.61
				c-0.5-1.05-0.75-2.28-0.75-3.68c0-2.78,0.99-4.99,2.96-6.65c1.97-1.65,4.35-2.48,7.13-2.48c2.49,0,4.67,0.61,6.56,1.82
				c1.89,1.21,3.36,2.9,4.41,5.07l-5.09,2.94c-1.23-2.63-3.19-3.95-5.88-3.95c-1.26,0-2.24,0.29-2.96,0.86
				c-0.72,0.57-1.07,1.31-1.07,2.22c0,0.97,0.4,1.75,1.21,2.35c0.8,0.6,2.35,1.25,4.63,1.95c0.94,0.29,1.64,0.52,2.13,0.68
				c0.48,0.16,1.14,0.41,1.97,0.75c0.83,0.34,1.48,0.65,1.93,0.94c0.45,0.29,0.97,0.69,1.56,1.18c0.58,0.5,1.03,1.01,1.34,1.54
				c0.31,0.53,0.57,1.16,0.79,1.91c0.22,0.75,0.33,1.56,0.33,2.43c0,2.84-1.03,5.09-3.09,6.75
				C323.84,495.62,321.15,496.45,317.85,496.45z"/>
			<path fill="#233237" d="M339.54,490.05h13.6v5.79h-19.65v-30.7h19.43v5.79h-13.38v6.54h12.28v5.7h-12.28V490.05z"/>
		</g>
		<g>
			<polygon fill="#FBD9B8" points="304.92,371.78 300.83,371.78 252.62,455.29 353.13,455.29 			"/>
			<polygon fill="#8D4036" points="304.92,371.78 317.74,349.58 314.68,347.81 304.65,365.18 304.65,344.92 301.11,344.92 
				301.11,365.18 291.08,347.81 288.01,349.58 300.83,371.78 			"/>
			<polygon fill="#1DA6A2" points="331.02,431.14 319.92,450.36 342.11,450.36 			"/>
			<polygon fill="#1DA6A2" points="274.74,431.14 263.64,450.36 285.84,450.36 			"/>
			<polygon fill="#EA637C" points="302.87,431.14 291.77,450.36 313.97,450.36 			"/>
		</g>
	</g>
</g>
<rect x="218.9" y="336.71" fill="none" width="167.95" height="167.95"/>
</svg>
