<?xml version="1.0" encoding="utf-8"?>
<!-- Generator: Adobe Illustrator 25.3.1, SVG Export Plug-In . SVG Version: 6.00 Build 0)  -->
<svg version="1.0" id="レイヤー_1" xmlns="http://www.w3.org/2000/svg" xmlns:xlink="http://www.w3.org/1999/xlink" x="0px"
	 y="0px" viewBox="0 0 3370 2284" enable-background="new 0 0 3370 2284" xml:space="preserve">
<g>
	<path fill="#FDFDFD" d="M1686.04,999.08c-76.65-0.67-140.9,61.18-143.01,138.39c-2.19,80.04,61.86,144.47,138.97,146.53
		c79.96,2.14,145.21-61.45,147.03-138.99C1830.93,1063.82,1764.65,998.38,1686.04,999.08z"/>
	<path fill="#18364D" d="M1686.04,999.08c78.61-0.71,144.89,64.73,142.99,145.93c-1.82,77.55-67.07,141.13-147.03,138.99
		c-77.11-2.06-141.16-66.49-138.97-146.53C1545.14,1060.26,1609.39,998.42,1686.04,999.08z M1721.77,1203.99
		c0-3.82,0.24-7.67-0.05-11.47c-0.61-8.16-2.27-9.55-10.45-9.56c-5.49-0.01-10.99-0.08-16.12-2.39c-0.83-0.37-2.03-0.89-1.85-2.08
		c0.22-1.42,1.54-1.6,2.71-1.6c2.99-0.01,6,0.31,8.97,0.06c10.11-0.85,15.45-4.77,17.72-12.6c0.77-2.65,0.87-4.21-2.8-4.5
		c-7.47-0.58-14.94-1.07-22.43-0.82c-2.57,0.09-4.69-0.45-7.03-1.69c-6.2-3.27-11.86-4.18-17.15,1.81c-1.94,2.2-4.37,2.68-7.17,2.73
		c-4.47,0.09-8.94-1.34-13.39,0.04c-3.32,1.02-6.47,3.03-7.39,6.13c-0.81,2.71,2.12,4.94,4.12,6.91c2.68,2.63,5.99,3.44,9.64,3.12
		c3.31-0.3,6.62-0.82,9.93-0.81c1.67,0,4.47,0.01,4.57,2.06c0.11,2.31-2.44,2.75-4.5,2.76c-4.49,0.02-8.99-0.11-13.42,0.86
		c-4.58,1.01-7.1,3.68-7.65,8.53c-1.44,12.64,0.29,25.25,0.17,37.87c-0.01,1.39-0.02,2.55,2.03,2.58
		c10.29,0.15,16.74-8.17,14.15-18.16c-1.21-4.68-2.16-9.46,0.35-14.1c0.88-1.64,1.8-3.42,3.9-3.43c2.32,0,3.53,1.81,4.18,3.75
		c1.57,4.63,1.84,9.44,1.46,14.29c-0.33,4.31-0.89,8.67,0.05,12.93c0.74,3.35,1.23,7.28,5.27,8.4c4.3,1.2,7.72-1.23,10.85-3.78
		c1.57-1.28,2.17-3.25,2.61-5.26c1.08-4.93,1.35-9.76,0.36-14.81c-0.69-3.53-0.62-7.32-0.22-10.93c0.49-4.43,3.16-6.1,6.87-4.84
		c4.61,1.57,5.89,5.63,6.69,9.76c0.72,3.67-0.08,7.02-3.69,9.01c-2.28,1.26-4.34,2.91-4.76,5.46c-0.54,3.25-0.36,6.59-1.18,9.86
		c-0.61,2.41,1.28,1.67,2.49,1.34c5.86-1.56,11.74-2.06,17.78-1.05c3.61,0.61,5.7-1.05,5.64-5
		C1722.89,1218.24,1721.24,1211.17,1721.77,1203.99z M1667.32,1060.63c-10.16-2.46-20.42-2.19-30.54-0.32
		c-38.32,7.1-67.99,37.63-72.29,77.58c-3.94,36.6,14.84,71.59,48.84,88.66c9.28,4.66,19.13,7.61,29.53,8.43
		c0.94,0.07,3.01,1.41,2.67-1.79c-0.61-5.77-0.47-11.61-0.81-17.41c-0.15-2.62,0.79-5.65-3.26-6.84c-3.76-1.1-6.95-1.93-9.63,1.94
		c-1.12,1.62-2.86,2.79-4.17,4.28c-1.93,2.19-3.66,2.41-5.84,0.2c-2.08-2.12-1.53-3.68,0.39-5.41c1.6-1.45,3.09-3.03,4.59-4.59
		c0.53-0.56,1.37-1.22,0.46-2.05c-0.67-0.61-1.59-0.65-2.27-0.02c-1.83,1.7-3.59,3.47-5.37,5.22c-1.91,1.88-3.47,1.17-5.11-0.49
		c-1.7-1.71-1.93-3.17-0.27-5.16c1.38-1.65,5.2-3.44,3.51-5.07c-2.34-2.26-3.69,1.91-5.46,3.21c-2.06,1.5-3.54,1.27-5.21-0.42
		c-1.66-1.67-2.1-3.08-0.27-5.09c1.27-1.39,4.82-2.79,2.85-4.75c-2.03-2.02-3.25,1.66-4.73,2.85c-2,1.6-3.42,1.51-5.13-0.28
		c-1.56-1.63-2.32-2.97-0.64-5.14c1.37-1.76,5.46-3.18,3.37-5.47c-1.6-1.75-3.34,2.15-5.08,3.4c-2.07,1.49-3.51,1.33-5.2-0.37
		c-1.71-1.73-2.01-3.34-0.18-5.14c1.54-1.52,3.06-3.06,4.56-4.62c0.77-0.81,1.06-1.82,0.14-2.62c-0.81-0.71-1.5,0.07-2.08,0.63
		c-1.55,1.51-3.1,3.02-4.6,4.58c-1.72,1.81-3.35,1.8-5.15,0.07c-1.82-1.76-2.54-3.47-0.42-5.5c1.56-1.5,2.92-3.24,4.62-4.55
		c3.07-2.38,3.33-4.81,2.12-8.58c-13.42-41.87,10.91-85.45,53.53-96.39C1652.19,1061.72,1659.77,1061.44,1667.32,1060.63z
		 M1735.88,1154.44c-2.13-0.63-2.52-2.33-3.14-3.81c-0.66-1.56-1.66-2.68-3.42-1.93c-1.72,0.73-2.74,2.52-1.85,4.07
		c3.67,6.4,5.54,13.84,12.12,18.54c7.73,5.53,14.4,12.33,20.16,19.93c1.68,2.22,3.42,4.61,2.66,7.71
		c-1.99,8.11-0.77,15.77,2.8,23.23c1.82,3.8-0.49,7.37-4.79,7.63c-1.83,0.11-3.67-0.14-5.19,1.21c-1.35,1.2-1.96,2.94,0.02,3.5
		c5.03,1.4,9.99,0.28,14.39-2.31c3.76-2.22,3.63-5.78,2.55-9.69c-1.35-4.87-0.01-6.6,5.03-7.64c1.14-0.24,2.35-0.32,3.39-0.77
		c2.93-1.29,4.65-0.22,5.91,2.5c1.31,2.84,0.28,4.17-2.47,5.09c-1.76,0.59-2.49,2.37-1.91,4.12c0.77,2.3,2.77,1.35,4.24,0.98
		c6.48-1.6,9-6.51,6.88-13.05c-1.82-5.64-0.28-12.18,5.75-14.92c6.58-3,11.9-7.82,13.77-15.48c0.85-3.48,3.3-6.07,6-8.4
		c1.68-1.45,4.43-3.12,2.08-5.58c-2.22-2.32-4.7-0.46-6.54,1.27c-3.2,3.02-5.32,6.78-6.68,10.96c-1.63,5-5.29,7.83-10,9.72
		c-3.03,1.21-4.68,0.57-5.25-2.76c-0.91-5.27-3.87-9.43-7.32-13.37c-4.62-5.28-10.16-9.59-15-14.61
		c-6.09-6.31-11.49-13.23-11.96-22.37c-0.64-12.4-0.9-24.84-0.28-37.27c0.12-2.41-1.07-3.74-3.35-4.13
		c-2.86-0.49-3.4,1.63-3.48,3.62c-0.08,1.96,0.33,3.96,0.68,5.91c1.11,6.23,0.13,12.23-1.93,18.09c-0.36,1.02-0.67,2.59-2.02,2.61
		c-5.47,0.06-10.62,2.56-16.14,2.05c-2.54-0.23-2.85,1.23-2.35,3.11c1.35,5.07,1.47,10.59,5.44,14.72
		C1736.72,1149.07,1736.25,1151.71,1735.88,1154.44z M1610.26,1199.16c0.87-0.8,1.86-1.66,2.8-2.58
		c13.77-13.65,27.55-27.31,41.3-40.98c8.26-8.22,16.47-16.49,24.73-24.72c22.64-22.56,45.3-45.11,67.9-67.7
		c0.92-0.92,3.13-1.86,1.64-3.51c-1.58-1.74-2.41,0.66-3.51,1.35c-0.41,0.26-0.72,0.69-1.07,1.04
		c-44.19,44.1-88.38,88.2-132.57,132.31c-0.94,0.94-2,1.82-2.71,2.91C1607.98,1198.49,1608.81,1199.04,1610.26,1199.16z
		 M1602.79,1191.94c0.65-0.58,1.41-1.2,2.11-1.9c42.44-42.27,84.87-84.53,127.27-126.84c0.9-0.9,3.15-1.86,1.54-3.49
		c-1.62-1.63-2.56,0.64-3.45,1.52c-8.77,8.64-17.45,17.37-26.18,26.06c-33.73,33.56-67.47,67.11-101.2,100.67
		c-0.59,0.58-1.27,1.16-1.62,1.88C1600.7,1191.04,1601.44,1191.65,1602.79,1191.94z M1594.99,1184.59c0.67-0.55,1.47-1.12,2.17-1.79
		c3.24-3.11,6.48-6.22,9.66-9.39c36.4-36.32,72.79-72.64,109.19-108.97c0.82-0.82,1.67-1.63,2.46-2.48c0.68-0.73,1.43-1.54,0.34-2.5
		c-0.81-0.71-1.52-0.23-2.14,0.37c-0.72,0.69-1.43,1.39-2.14,2.1c-39.36,39.24-78.71,78.49-118.06,117.73
		c-0.82,0.82-1.69,1.61-2.43,2.51C1593.14,1183.24,1593.69,1183.98,1594.99,1184.59z M1587.74,1177.22c1.04-0.95,2.27-2,3.41-3.13
		c36.99-36.9,73.96-73.81,110.94-110.72c0.59-0.59,1.19-1.17,1.78-1.75c0.61-0.59,1.26-1.15,0.41-2.05c-0.74-0.78-1.48-0.59-2.17,0
		c-0.75,0.65-1.43,1.39-2.14,2.09c-36.91,36.74-73.82,73.47-110.73,110.21c-0.94,0.94-1.91,1.86-2.75,2.89
		C1585.63,1175.84,1586.16,1176.58,1587.74,1177.22z M1661.21,1158.09c5.14,1.85,6.67-1.18,8.46-2.93
		c9.76-9.53,19.34-19.26,29-28.89c21.1-21.03,42.22-42.03,63.29-63.08c0.93-0.93,3.1-1.91,1.63-3.53c-1.57-1.74-2.4,0.68-3.5,1.36
		c-0.41,0.26-0.72,0.69-1.07,1.04c-30.99,30.9-61.97,61.81-93,92.68C1664.87,1155.89,1663.31,1156.65,1661.21,1158.09z
		 M1685.8,1152.73c1.94-0.19,2.82-1.77,3.95-2.9c28.65-28.5,57.27-57.02,85.9-85.54c0.71-0.7,1.45-1.38,2.1-2.13
		c0.61-0.7,1.75-1.39,0.78-2.47c-1.26-1.41-2.02,0.03-2.82,0.72c-0.88,0.76-1.66,1.63-2.48,2.45
		c-24.97,24.88-49.94,49.77-74.92,74.65c-4.24,4.22-8.54,8.39-12.79,12.61c-0.54,0.53-1.49,1.01-0.96,1.99
		C1684.74,1152.44,1685.39,1152.53,1685.8,1152.73z M1732.32,1168.22c-1.9,3.27-3.16,6.99-5.66,9.44
		c-6.55,6.42-1.8,13.26-1.84,19.96c4.85-5.56,7.73-11.98,10.68-18.42C1737.7,1174.41,1737.75,1170.8,1732.32,1168.22z
		 M1647.66,1235.69c8.08,0.34,15.18-0.32,22.22-1.71c1.38-0.27,3.25,0.02,2.37-2.53c-1.83-5.31-1.64-10.78-1.15-16.28
		c0.09-1.04,0.63-2.52-0.88-2.99c-0.88-0.27-2.11-0.26-2.89,0.17c-1.46,0.81-0.23,2.07-0.02,3.07c1.62,7.98-0.27,12.18-7.7,15.75
		C1656.06,1232.86,1652.24,1233.98,1647.66,1235.69z M1617.44,1206.95c0.77-0.69,1.53-1.32,2.22-2.01
		c8.44-8.43,16.9-16.85,25.28-25.34c0.85-0.87,3.18-1.82,1.34-3.42c-1.65-1.43-2.56,0.78-3.47,1.69
		c-7.32,7.21-14.56,14.5-21.83,21.76c-1.52,1.52-3.05,3.05-4.53,4.6c-0.46,0.48-0.77,1.14-0.28,1.77
		C1616.46,1206.35,1616.93,1206.57,1617.44,1206.95z M1696.36,1215.85c2.34-1.61,4.2-2.71,5.84-4.07c2.28-1.89,1.87-4.46,1.26-6.93
		c-0.26-1.04-0.21-2.45-1.71-2.76c-2.65-0.55-6.83,3.9-6.47,6.98C1695.53,1211.2,1695.95,1213.31,1696.36,1215.85z M1644.55,1190.71
		c-6.88,7-13.29,13.49-19.64,20.03c-0.71,0.73-2.36,1.46-1.2,2.76c1.42,1.58,2.35-0.19,3.18-1c5.59-5.45,11.1-10.97,16.68-16.43
		C1644.9,1194.77,1645.43,1193.39,1644.55,1190.71z"/>
	<path fill="#E1B144" d="M1721.77,1203.99c-0.53,7.18,1.12,14.25,1.24,21.38c0.07,3.95-2.03,5.61-5.64,5
		c-6.04-1.01-11.92-0.51-17.78,1.05c-1.21,0.32-3.1,1.06-2.49-1.34c0.83-3.27,0.64-6.61,1.18-9.86c0.43-2.55,2.49-4.2,4.76-5.46
		c3.6-2,4.4-5.35,3.69-9.01c-0.81-4.14-2.09-8.19-6.69-9.76c-3.71-1.26-6.37,0.41-6.87,4.84c-0.4,3.6-0.47,7.39,0.22,10.93
		c0.98,5.05,0.72,9.88-0.36,14.81c-0.44,2.01-1.04,3.98-2.61,5.26c-3.12,2.55-6.55,4.98-10.85,3.78c-4.04-1.13-4.53-5.05-5.27-8.4
		c-0.94-4.27-0.38-8.62-0.05-12.93c0.38-4.85,0.11-9.66-1.46-14.29c-0.66-1.93-1.86-3.75-4.18-3.75c-2.1,0-3.02,1.79-3.9,3.43
		c-2.51,4.64-1.56,9.42-0.35,14.1c2.59,9.99-3.87,18.31-14.15,18.16c-2.04-0.03-2.04-1.19-2.03-2.58
		c0.12-12.62-1.61-25.23-0.17-37.87c0.55-4.85,3.07-7.51,7.65-8.53c4.43-0.98,8.93-0.84,13.42-0.86c2.06-0.01,4.61-0.45,4.5-2.76
		c-0.1-2.06-2.9-2.06-4.57-2.06c-3.31-0.01-6.62,0.51-9.93,0.81c-3.65,0.33-6.96-0.49-9.64-3.12c-2.01-1.97-4.93-4.2-4.12-6.91
		c0.92-3.1,4.07-5.11,7.39-6.13c4.45-1.37,8.93,0.05,13.39-0.04c2.8-0.05,5.23-0.53,7.17-2.73c5.29-5.99,10.95-5.08,17.15-1.81
		c2.34,1.24,4.46,1.77,7.03,1.69c7.49-0.25,14.95,0.24,22.43,0.82c3.67,0.29,3.56,1.85,2.8,4.5c-2.27,7.82-7.6,11.75-17.72,12.6
		c-2.97,0.25-5.98-0.07-8.97-0.06c-1.17,0-2.49,0.18-2.71,1.6c-0.19,1.19,1.02,1.71,1.85,2.08c5.14,2.31,10.63,2.38,16.12,2.39
		c8.19,0.01,9.84,1.4,10.45,9.56C1722.01,1196.32,1721.77,1200.17,1721.77,1203.99z"/>
	<path fill="#E1B144" d="M1667.32,1060.63c-7.55,0.81-15.13,1.09-22.53,2.98c-42.63,10.94-66.95,54.52-53.53,96.39
		c1.21,3.78,0.95,6.21-2.12,8.58c-1.7,1.31-3.06,3.05-4.62,4.55c-2.11,2.03-1.4,3.74,0.42,5.5c1.8,1.73,3.43,1.74,5.15-0.07
		c1.49-1.56,3.05-3.07,4.6-4.58c0.58-0.57,1.27-1.34,2.08-0.63c0.91,0.8,0.63,1.82-0.14,2.62c-1.49,1.56-3.01,3.11-4.56,4.62
		c-1.83,1.8-1.53,3.42,0.18,5.14c1.69,1.7,3.13,1.86,5.2,0.37c1.74-1.25,3.48-5.15,5.08-3.4c2.09,2.29-2,3.72-3.37,5.47
		c-1.69,2.17-0.92,3.51,0.64,5.14c1.71,1.79,3.14,1.88,5.13,0.28c1.47-1.19,2.7-4.87,4.73-2.85c1.97,1.96-1.58,3.36-2.85,4.75
		c-1.83,2-1.39,3.41,0.27,5.09c1.67,1.69,3.15,1.92,5.21,0.42c1.78-1.3,3.12-5.47,5.46-3.21c1.7,1.64-2.13,3.42-3.51,5.07
		c-1.66,1.99-1.43,3.45,0.27,5.16c1.64,1.65,3.21,2.36,5.11,0.49c1.78-1.75,3.54-3.52,5.37-5.22c0.68-0.63,1.6-0.59,2.27,0.02
		c0.91,0.83,0.07,1.49-0.46,2.05c-1.5,1.56-2.98,3.14-4.59,4.59c-1.92,1.73-2.47,3.29-0.39,5.41c2.17,2.21,3.91,1.99,5.84-0.2
		c1.32-1.5,3.06-2.67,4.17-4.28c2.68-3.87,5.87-3.04,9.63-1.94c4.05,1.19,3.11,4.21,3.26,6.84c0.34,5.8,0.19,11.65,0.81,17.41
		c0.34,3.2-1.73,1.86-2.67,1.79c-10.4-0.82-20.25-3.77-29.53-8.43c-34-17.07-52.78-52.06-48.84-88.66
		c4.3-39.95,33.97-70.48,72.29-77.58C1646.91,1058.44,1657.16,1058.17,1667.32,1060.63z"/>
	<path fill="#E1B144" d="M1735.88,1154.44c0.37-2.74,0.84-5.38-1.23-7.53c-3.97-4.14-4.09-9.66-5.44-14.72
		c-0.5-1.88-0.2-3.34,2.35-3.11c5.52,0.51,10.67-1.99,16.14-2.05c1.35-0.02,1.66-1.59,2.02-2.61c2.06-5.86,3.05-11.86,1.93-18.09
		c-0.35-1.95-0.76-3.95-0.68-5.91c0.08-1.99,0.63-4.11,3.48-3.62c2.28,0.39,3.47,1.72,3.35,4.13c-0.62,12.43-0.36,24.86,0.28,37.27
		c0.47,9.14,5.87,16.06,11.96,22.37c4.85,5.02,10.39,9.33,15,14.61c3.45,3.95,6.41,8.1,7.32,13.37c0.58,3.33,2.22,3.98,5.25,2.76
		c4.71-1.89,8.37-4.72,10-9.72c1.36-4.18,3.48-7.94,6.68-10.96c1.84-1.74,4.32-3.6,6.54-1.27c2.35,2.46-0.4,4.14-2.08,5.58
		c-2.7,2.33-5.15,4.92-6,8.4c-1.87,7.67-7.19,12.49-13.77,15.48c-6.03,2.74-7.57,9.28-5.75,14.92c2.12,6.55-0.4,11.45-6.88,13.05
		c-1.47,0.36-3.47,1.32-4.24-0.98c-0.58-1.75,0.15-3.53,1.91-4.12c2.75-0.93,3.78-2.25,2.47-5.09c-1.26-2.72-2.97-3.79-5.91-2.5
		c-1.04,0.46-2.25,0.54-3.39,0.77c-5.04,1.05-6.38,2.77-5.03,7.64c1.08,3.91,1.22,7.47-2.55,9.69c-4.4,2.6-9.35,3.72-14.39,2.31
		c-1.98-0.55-1.37-2.29-0.02-3.5c1.52-1.36,3.35-1.1,5.19-1.21c4.3-0.26,6.61-3.84,4.79-7.63c-3.57-7.46-4.79-15.13-2.8-23.23
		c0.76-3.1-0.98-5.5-2.66-7.71c-5.76-7.6-12.43-14.4-20.16-19.93c-6.57-4.7-8.45-12.14-12.12-18.54c-0.88-1.54,0.13-3.34,1.85-4.07
		c1.76-0.75,2.77,0.37,3.42,1.93C1733.36,1152.11,1733.75,1153.82,1735.88,1154.44z"/>
	<path fill="#E1B144" d="M1610.26,1199.16c-1.45-0.12-2.27-0.67-1.49-1.88c0.71-1.1,1.77-1.97,2.71-2.91
		c44.19-44.11,88.38-88.21,132.57-132.31c0.35-0.35,0.66-0.78,1.07-1.04c1.1-0.69,1.93-3.1,3.51-1.35c1.49,1.65-0.72,2.6-1.64,3.51
		c-22.61,22.59-45.26,45.14-67.9,67.7c-8.25,8.23-16.47,16.5-24.73,24.72c-13.75,13.68-27.53,27.33-41.3,40.98
		C1612.12,1197.5,1611.12,1198.36,1610.26,1199.16z"/>
	<path fill="#E1B144" d="M1602.79,1191.94c-1.35-0.3-2.1-0.9-1.53-2.1c0.34-0.72,1.03-1.29,1.62-1.88
		c33.73-33.56,67.47-67.11,101.2-100.67c8.73-8.68,17.41-17.41,26.18-26.06c0.89-0.88,1.83-3.15,3.45-1.52
		c1.62,1.63-0.64,2.59-1.54,3.49c-42.4,42.31-84.83,84.57-127.27,126.84C1604.21,1190.74,1603.44,1191.37,1602.79,1191.94z"/>
	<path fill="#E1B144" d="M1594.99,1184.59c-1.29-0.62-1.85-1.35-0.97-2.42c0.74-0.89,1.61-1.68,2.43-2.51
		c39.35-39.25,78.71-78.49,118.06-117.73c0.71-0.7,1.42-1.41,2.14-2.1c0.63-0.6,1.33-1.09,2.14-0.37c1.09,0.96,0.34,1.76-0.34,2.5
		c-0.79,0.86-1.63,1.66-2.46,2.48c-36.39,36.33-72.78,72.65-109.19,108.97c-3.18,3.17-6.42,6.28-9.66,9.39
		C1596.46,1183.47,1595.66,1184.04,1594.99,1184.59z"/>
	<path fill="#E1B144" d="M1587.74,1177.22c-1.58-0.64-2.11-1.38-1.24-2.45c0.84-1.03,1.8-1.95,2.75-2.89
		c36.91-36.74,73.82-73.48,110.73-110.21c0.71-0.7,1.39-1.44,2.14-2.09c0.68-0.59,1.42-0.79,2.17,0c0.86,0.9,0.2,1.46-0.41,2.05
		c-0.6,0.58-1.19,1.16-1.78,1.75c-36.98,36.91-73.96,73.82-110.94,110.72C1590.01,1175.22,1588.78,1176.27,1587.74,1177.22z"/>
	<path fill="#E1B144" d="M1661.21,1158.09c2.1-1.44,3.65-2.19,4.81-3.35c31.02-30.87,62.01-61.78,93-92.68
		c0.35-0.35,0.66-0.79,1.07-1.04c1.1-0.69,1.93-3.1,3.5-1.36c1.47,1.62-0.7,2.6-1.63,3.53c-21.07,21.05-42.19,42.06-63.29,63.08
		c-9.67,9.63-19.24,19.35-29,28.89C1667.88,1156.91,1666.35,1159.94,1661.21,1158.09z"/>
	<path fill="#E1B144" d="M1685.8,1152.73c-0.41-0.19-1.06-0.28-1.24-0.62c-0.53-0.98,0.43-1.46,0.96-1.99
		c4.25-4.22,8.55-8.38,12.79-12.61c24.98-24.88,49.95-49.76,74.92-74.65c0.82-0.82,1.6-1.7,2.48-2.45c0.8-0.68,1.57-2.13,2.82-0.72
		c0.97,1.09-0.18,1.78-0.78,2.47c-0.65,0.75-1.39,1.43-2.1,2.13c-28.63,28.52-57.25,57.04-85.9,85.54
		C1688.61,1150.96,1687.74,1152.53,1685.8,1152.73z"/>
	<path fill="#E1B144" d="M1732.32,1168.22c5.42,2.58,5.37,6.19,3.18,10.98c-2.95,6.44-5.83,12.86-10.68,18.42
		c0.04-6.7-4.71-13.54,1.84-19.96C1729.16,1175.21,1730.42,1171.5,1732.32,1168.22z"/>
	<path fill="#E1B144" d="M1647.66,1235.69c4.58-1.71,8.4-2.84,11.95-4.54c7.43-3.57,9.32-7.77,7.7-15.75c-0.2-1-1.44-2.26,0.02-3.07
		c0.77-0.43,2.01-0.44,2.89-0.17c1.51,0.47,0.97,1.95,0.88,2.99c-0.49,5.5-0.68,10.97,1.15,16.28c0.88,2.55-0.99,2.26-2.37,2.53
		C1662.84,1235.37,1655.74,1236.03,1647.66,1235.69z"/>
	<path fill="#E1B144" d="M1617.44,1206.95c-0.51-0.38-0.98-0.59-1.27-0.95c-0.49-0.63-0.18-1.28,0.28-1.77
		c1.48-1.56,3.01-3.08,4.53-4.6c7.26-7.27,14.51-14.55,21.83-21.76c0.92-0.91,1.83-3.12,3.47-1.69c1.84,1.6-0.49,2.55-1.34,3.42
		c-8.38,8.5-16.84,16.91-25.28,25.34C1618.97,1205.63,1618.21,1206.26,1617.44,1206.95z"/>
	<path fill="#E1B144" d="M1696.36,1215.85c-0.41-2.54-0.83-4.65-1.08-6.78c-0.35-3.08,3.82-7.53,6.47-6.98
		c1.5,0.31,1.45,1.72,1.71,2.76c0.61,2.46,1.02,5.04-1.26,6.93C1700.56,1213.14,1698.7,1214.24,1696.36,1215.85z"/>
	<path fill="#E1B144" d="M1644.55,1190.71c0.88,2.68,0.35,4.07-0.98,5.36c-5.58,5.45-11.09,10.98-16.68,16.43
		c-0.83,0.81-1.76,2.58-3.18,1c-1.16-1.3,0.49-2.03,1.2-2.76C1631.26,1204.2,1637.66,1197.71,1644.55,1190.71z"/>
</g>
</svg>
